PathFileType	4	(X/Y/Z)	E:\Qualisys_Data\Carbon_Farble_Plate\Data\Amateur_Runner\S2\T1\S2T1V12_c3d.trc
DataRate	CameraRate	NumFrames	NumMarkers	Units	OrigDataRate	OrigDataStartFrame	OrigNumFrames
200.000000	200.000000	4	39	mm	200.000000	40	320
Frame#	Time	LSHO			RSHO			LICST			RICST			LASIS			LHEEL			RASIS			LTROC			RTROC			SACR			LTH1			LSK4			LTH2			LTH3			RHM5			LSK2			LTH4			RTH1			LTOE			RTH2			RTH3			RTH4			LLEP			RLEP			LSK1			LSK3			RSK1			LHM5			RSK2			LFT1			RSK3			RSK4			LLME			RLME			RTOE			RHEEL			RFT1			RFT2			LFT2			
		X1	Y1	Z1	X2	Y2	Z2	X3	Y3	Z3	X4	Y4	Z4	X5	Y5	Z5	X6	Y6	Z6	X7	Y7	Z7	X8	Y8	Z8	X9	Y9	Z9	X10	Y10	Z10	X11	Y11	Z11	X12	Y12	Z12	X13	Y13	Z13	X14	Y14	Z14	X15	Y15	Z15	X16	Y16	Z16	X17	Y17	Z17	X18	Y18	Z18	X19	Y19	Z19	X20	Y20	Z20	X21	Y21	Z21	X22	Y22	Z22	X23	Y23	Z23	X24	Y24	Z24	X25	Y25	Z25	X26	Y26	Z26	X27	Y27	Z27	X28	Y28	Z28	X29	Y29	Z29	X30	Y30	Z30	X31	Y31	Z31	X32	Y32	Z32	X33	Y33	Z33	X34	Y34	Z34	X35	Y35	Z35	X36	Y36	Z36	X37	Y37	Z37	X38	Y38	Z38	X39	Y39	Z39	

41	0.2	-1625.695678710938	1424.0732421875	-431.7694702148438	-1632.159057617188	1389.841430664062	-109.1093368530273	-1707.307006835938	960.1785278320312	-436.4679870605469	-1707.447875976562	952.7385864257812	-131.1239624023438	-1648.302612304688	911.295166015625	-419.7439575195312	-2022.656005859375	427.0466003417969	-327.2529602050781	-1642.113403320312	914.4259643554688	-156.9883728027344	-1775.621215820312	828.94189453125	-427.9756469726562	-1783.122436523438	848.9111328125	-132.0332489013672	-1796.193969726562	1000.804870605469	-287.0533752441406	-1608.185668945312	611.8782958984375	-456.576171875	-1850.98876953125	450.3860168457031	-422.9599914550781	-1689.90966796875	596.0201416015625	-455.8517456054688	-1588.561401367188	510.4326477050781	-446.1353759765625	-1668.290161132812	67.47970581054688	-168.2034301757812	-1756.654174804688	471.4361572265625	-446.414306640625	-1673.368286132812	497.0474853515625	-439.4387817382812	-1591.784912109375	612.4012451171875	-133.0806884765625	-2005.000732421875	188.6241455078125	-387.0838623046875	-1668.03759765625	594.9492797851562	-128.9559326171875	-1571.310791015625	516.1156616210938	-159.7353210449219	-1649.934936523438	501.9226989746094	-152.0283660888672	-1632.743408203125	460.7466125488281	-449.1239624023438	-1616.095581054688	468.4200134277344	-155.179443359375	-1740.239379882812	393.7877502441406	-445.7883605957031	-1837.054443359375	373.4290161132812	-429.927734375	-1621.775146484375	340.8240051269531	-162.9747772216797	-2037.709228515625	247.4253692626953	-438.1582336425781	-1691.785400390625	374.3685302734375	-142.9930114746094	-2041.204223632812	404.168212890625	-298.7208251953125	-1665.7451171875	250.3457336425781	-177.4314117431641	-1734.10400390625	284.496337890625	-158.327880859375	-2009.512939453125	379.0873107910156	-392.5600891113281	-1784.217651367188	112.1277618408203	-198.3876342773438	-1610.522216796875	69.39962768554688	-234.0201263427734	-1850.3408203125	108.8318099975586	-256.2714538574219	-1839.733642578125	76.58961486816406	-283.5621337890625	-1855.454711914062	83.9614486694336	-228.6623992919922	-2052.57763671875	423.477294921875	-349.0853881835938
42	0.205	-1612.15625	1425.6572265625	-432.0920715332031	-1614.906494140625	1391.719360351562	-110.0651168823242	-1692.801513671875	961.9276123046876	-436.2813110351562	-1690.28955078125	953.9600830078124	-130.3921356201172	-1633.5	913.1926879882812	-419.9222412109375	-1998.305786132812	421.6451721191406	-328.1759033203125	-1626.658447265625	915.317138671875	-157.1637420654297	-1759.667724609375	830.2569580078125	-427.5936889648438	-1767.695434570312	849.7266845703125	-131.9286651611328	-1779.839477539062	1001.106384277344	-285.3970642089844	-1587.0595703125	615.1480102539062	-456.3201904296875	-1825.807373046875	449.2492980957031	-422.5047912597656	-1667.97216796875	597.497802734375	-455.518310546875	-1565.544799804688	514.269775390625	-445.246826171875	-1667.682983398438	67.50748443603516	-167.9718933105469	-1731.345458984375	471.9828186035156	-445.1807556152344	-1649.978149414062	499.5152893066406	-438.5408935546875	-1582.716918945312	609.93359375	-133.3603820800781	-1976.039184570312	183.5732574462891	-385.0521850585938	-1659.313598632812	594.0460815429688	-129.7036590576172	-1564.230834960938	512.9876098632812	-158.5491180419922	-1643.705932617188	500.6805114746094	-152.4541931152344	-1608.3271484375	463.4566345214844	-448.1201171875	-1610.72119140625	466.6406860351562	-153.8287353515625	-1714.011840820312	394.6304321289062	-444.52099609375	-1810.423828125	372.6607360839844	-429.2388610839844	-1616.733764648438	339.7117004394531	-162.8181915283203	-2007.581176757812	241.7125549316406	-438.3742065429688	-1687.4990234375	373.8254699707031	-143.6182250976562	-2018.117309570312	399.6488342285156	-300.2948913574219	-1662.601440429688	249.6782989501953	-177.1654968261719	-1731.270629882812	285.7331237792969	-158.82080078125	-1984.34033203125	374.1681213378906	-393.2266845703125	-1782.314331054688	113.3296432495117	-197.7729034423828	-1610.222045898438	68.09657287597656	-234.3273773193359	-1849.349975585938	110.4180145263672	-256.1644897460938	-1839.182861328125	77.6310806274414	-283.687744140625	-1852.373779296875	85.5174789428711	-228.5222778320312	-2027.0302734375	417.6438598632812	-350.2915954589844
43	0.21	-1598.56396484375	1427.88134765625	-432.4947204589844	-1597.143920898438	1393.879272460938	-110.1805953979492	-1677.11328125	963.8953247070312	-435.983642578125	-1673.076538085938	955.4728393554688	-129.4480133056641	-1618.455932617188	915.3025512695312	-420.0609130859375	-1973.345947265625	416.38232421875	-328.6405029296875	-1609.656005859375	916.4280395507812	-157.2902069091797	-1744.900634765625	831.9339599609375	-428.0550842285156	-1751.705810546875	850.9728393554688	-131.5538787841797	-1764.689331054688	1002.55029296875	-284.8251953125	-1565.94287109375	618.6873168945312	-456.3563842773438	-1801.089111328125	448.3259887695312	-422.1003723144531	-1647.480346679688	599.972412109375	-455.3603820800781	-1542.978881835938	518.2887573242188	-444.0066528320312	-1667.7333984375	67.27568817138672	-167.9945220947266	-1706.837158203125	473.1487426757812	-443.8723449707031	-1626.943115234375	502.1011657714844	-437.9483642578125	-1573.495849609375	606.5672607421875	-133.2315826416016	-1944.129150390625	179.1871490478516	-383.9751892089844	-1650.610717773438	593.5394287109375	-130.4849853515625	-1558.016845703125	509.4391784667969	-158.6667938232422	-1637.68212890625	499.5088195800781	-152.3340148925781	-1584.352905273438	466.8815612792969	-446.9931030273438	-1605.2822265625	465.2323608398438	-153.0128021240234	-1688.249267578125	396.5997619628906	-444.391357421875	-1783.841918945312	371.647216796875	-428.8902893066406	-1612.253662109375	339.0321655273438	-161.7728424072266	-1976.906005859375	236.0767517089844	-436.6090393066406	-1683.215698242188	375.0226135253906	-144.2021942138672	-1992.460693359375	394.1281127929688	-299.8564147949219	-1659.370483398438	249.5928039550781	-176.7013244628906	-1728.067260742188	286.1127319335938	-159.3376007080078	-1958.14111328125	369.2341918945312	-393.2277221679688	-1780.9404296875	115.0212478637695	-198.8762664794922	-1610.035034179688	67.99419403076172	-234.3529357910156	-1848.922973632812	111.7892608642578	-256.539306640625	-1840.37939453125	82.06221008300781	-281.23779296875	-1854.580200195312	86.85539245605469	-228.38232421875	-2002.888427734375	411.5715637207031	-350.8561706542969
44	0.215	-1585.649658203125	1430.302734375	-433.161376953125	-1579.415405273438	1396.296508789062	-110.9212341308594	-1661.708618164062	966.1444091796876	-435.4884338378906	-1657.33056640625	956.8834838867188	-130.1868743896484	-1603.693359375	918.4395751953124	-419.7337646484375	-1949.947387695312	409.2349853515625	-330.2235412597656	-1593.60595703125	918.0701293945312	-157.0857238769531	-1729.112060546875	834.5396118164062	-427.7727966308594	-1735.531005859375	852.9932861328125	-130.9192504882812	-1749.257690429688	1004.844055175781	-284.0296325683594	-1544.995849609375	623.05517578125	-456.3515014648438	-1777.548461914062	449.1198120117188	-421.7291564941406	-1626.225341796875	602.9428100585938	-455.2456359863281	-1520.904663085938	523.3733520507812	-444.11279296875	-1667.580810546875	67.66944885253906	-168.0998382568359	-1682.46875	473.9356994628906	-442.6163940429688	-1604.401489257812	505.6512145996094	-437.0011596679688	-1565.099609375	603.9498291015625	-132.5944366455078	-1910.88134765625	174.4380035400391	-382.8363647460938	-1642.430053710938	593.7302856445312	-130.4378662109375	-1551.835571289062	506.9031982421875	-157.7924652099609	-1631.898803710938	499.5639953613281	-152.8095550537109	-1560.987182617188	470.7807922363281	-445.8602294921875	-1599.98779296875	464.9871826171875	-152.5291137695312	-1661.815795898438	397.6194458007812	-442.7940673828125	-1757.377563476562	371.1869506835938	-428.0338439941406	-1607.90478515625	339.3607177734375	-161.5011444091797	-1945.130249023438	228.9014739990234	-436.5087585449219	-1677.530151367188	375.7407836914062	-143.6391754150391	-1967.024658203125	388.5782775878906	-299.6276550292969	-1656.169677734375	250.1921691894531	-176.1103668212891	-1725.019287109375	288.1368713378906	-158.5719757080078	-1931.962524414062	363.3826599121094	-393.2646789550781	-1780.723754882812	116.5278015136719	-199.5935211181641	-1609.952880859375	67.23139953613281	-234.7610015869141	-1849.082885742188	113.2783966064453	-256.2030029296875	-1838.791625976562	80.93948364257812	-283.6400756835938	-1853.432861328125	88.5367202758789	-228.7397003173828	-1979.6767578125	404.8386535644531	-351.7285461425781
